<?xml version="1.0" encoding="UTF-8" standalone="no"?>
<svg
   xmlns:dc="http://purl.org/dc/elements/1.1/"
   xmlns:cc="http://creativecommons.org/ns#"
   xmlns:rdf="http://www.w3.org/1999/02/22-rdf-syntax-ns#"
   xmlns:svg="http://www.w3.org/2000/svg"
   xmlns="http://www.w3.org/2000/svg"
   id="svg8"
   version="1.1"
   viewBox="0 0 50.800001 50.800001"
   height="2in"
   width="2in">
  <defs
     id="defs2" />
  <metadata
     id="metadata5">
    <rdf:RDF>
      <cc:Work
         rdf:about="">
        <dc:format>image/svg+xml</dc:format>
        <dc:type
           rdf:resource="http://purl.org/dc/dcmitype/StillImage" />
        <dc:title></dc:title>
      </cc:Work>
    </rdf:RDF>
  </metadata>
  <g
     id="layer1">
    <rect
       ry="7.4996958"
       y="0.083473921"
       x="-0.15803932"
       height="50.935432"
       width="51.247921"
       id="rect10"
       style="fill:#ffffff;fill-opacity:1;fill-rule:evenodd;stroke-width:0.264583" />
    <path
       style="stroke-width:0.256577;fill:#ff0000"
       id="path1560"
       fill="#cc2229"
       clip-rule="evenodd"
       fill-rule="evenodd"
       d="m 27.743386,11.329465 c 9.18212,0 16.67159,7.488964 16.67159,16.671336 0,9.183142 -7.48922,16.672107 -16.67159,16.672107 -9.182627,0 -16.671849,-7.488965 -16.671849,-16.672107 0,-9.182115 7.489222,-16.671336 16.671849,-16.671336 z" />
    <path
       style="stroke-width:0.256577;fill:#ffffff"
       id="path1562"
       clip-rule="evenodd"
       fill-rule="evenodd"
       d="m 27.743386,16.008656 c 6.6048,0 11.9924,5.387088 11.9924,11.992145 0,6.605828 -5.3876,11.992915 -11.9924,11.992915 -6.605569,0 -11.992657,-5.387087 -11.992657,-11.992915 0,-6.605057 5.387088,-11.992145 11.992657,-11.992145 z" />
    <path
       style="stroke-width:0.256577"
       id="path1564"
       fill="#ffffff"
       d="m 39.958236,30.84316 c 0.49956,-0.158822 0.91906,-0.208084 1.42811,0.17986 0.74228,0.565239 1.72882,1.499948 2.84595,1.461205 0.40231,-0.0136 0.8308,-0.08005 0.8308,-0.504173 5.1e-4,-0.813349 -1.45531,-1.38218 -1.736,-2.089306 0.11315,-0.07312 0.49417,-0.169854 0.65145,-0.165492 0.37383,-0.04311 1.64081,0.370754 2.53729,0.337655 0.50622,-0.01847 0.91803,-0.106222 0.94907,-0.639902 0.0467,-0.793336 -0.74227,-1.201806 -1.68288,-1.505337 -1.10046,-0.355615 -2.41542,-0.518798 -2.93755,-0.642981 0.20988,-0.511871 0.77435,-1.023485 1.27749,-1.497639 0.48647,-0.41899 1.84659,-1.034005 1.8648,-1.797321 0.0131,-0.528548 -0.39333,-0.605521 -0.82284,-0.631692 -0.9034,-0.05542 -1.58256,0.220656 -2.3564,0.61758 -0.7392,0.378964 -1.45633,0.846447 -2.24351,1.143307 -0.205,0.07159 -0.55882,0.114176 -0.91059,0.117512 -0.37434,0.0038 -0.74612,-0.03643 -0.93214,-0.132907 -0.36331,-0.224505 -0.53163,-1.113543 -0.59423,-1.518165 -0.2866,-1.853255 -1.87071,-3.595411 -3.45532,-4.4552 -1.22388,-0.664021 -2.20785,-0.770244 -3.36013,-0.894427 -0.42438,-0.04567 -0.86005,-0.135729 -1.28392,-0.158051 -5.1e-4,-0.513154 -0.24451,-1.013479 -0.39025,-1.505593 -0.23502,-0.794362 -0.70353,-1.463515 -0.96909,-2.248127 -0.34766,-1.02836 0.0811,-2.099311 -0.24349,-3.16 0.1229,-0.0026 0.35587,-0.0857 0.35972,-0.197564 0.008,-0.213216 -0.22656,-0.530601 -0.1052,-0.587048 1.31445,-0.300451 2.02414,-0.4541409 2.46648,-1.1928259 l -5.2e-4,-5.13e-4 c 0.0652,-0.175755 0.1424,-0.267096 0.20757,-0.443108 0.0169,-0.2009 -0.0305,-0.305326 -0.12367,-0.34407 -0.30507,-0.126749 -0.92316,0.205262 -1.41219,0.168571 a 0.58345573,0.58345573 0 0 1 -0.43439,-0.229379 c -0.68711,-0.68737 -0.34766,-1.853511 -1.62772,-1.896873 -1.17718,-0.04003 -2.49598,0.63939 -3.26571,1.425028 -0.24067,0.305839 -0.4526,0.248366 -0.59141,0.248366 -0.36742,2.57e-4 -0.6984,-0.04208 -1.01348,0.03233 -0.4603,0.108789 -0.867744,0.340991 -1.23901,0.792822 a 1.4740339,1.4740339 0 0 1 -0.302248,0.279413 c -1.155365,0.8087299 -1.387311,2.4577489 -2.084943,3.6120879 -0.361261,0.598081 -0.800007,1.255687 -1.342154,1.701618 -0.665817,0.547535 -0.906742,1.201549 -1.291864,1.926892 -0.549075,1.033491 -0.431819,1.687506 -0.01796,2.654287 0.316873,0.445931 0.397181,0.851579 0.562673,1.428877 -0.823098,0.572166 -1.986931,1.434264 -2.465703,2.310987 -0.548305,1.004755 -1.662361,1.452482 -2.444664,2.224778 -0.281465,0.20167 -0.614502,0.454911 -0.89571,0.65658 C 10.11348,25.091221 8.89705,24.375628 7.6116,23.788067 7.237511,23.61693 5.347822,22.716346 4.284568,22.783312 c -0.492884,0.0313 -0.869026,0.436951 -0.560877,0.835158 0.454397,0.588074 1.486863,0.992183 1.875063,1.536895 -0.689165,0.564469 -2.213231,0.944716 -2.13087,1.710598 0.0272,0.254524 0.490575,0.511358 1.019636,0.494937 0.646061,-0.01976 1.192826,-0.04952 1.441449,0.03489 -0.0136,0.570627 -0.808987,0.997571 -1.123037,1.438113 -0.15369,0.215012 -0.199104,0.443622 0.0038,0.713541 0.360234,0.504686 1.98026,-0.09262 2.400533,-0.2204 0.465943,0.219117 1.596677,1.061458 2.077759,0.985768 0.171137,0.03746 0.359721,-0.04516 0.530857,-0.0069 0.912388,0.403338 1.291608,1.47429 2.27635,1.66467 0.19859,0.03849 0.376911,0.12367 0.561134,-0.01463 0.511614,-0.349201 0.439772,-0.950104 0.15138,-1.666723 0.426431,-0.129828 1.087886,-0.299682 1.442988,-0.556258 v 5.13e-4 c 0.522134,-0.377425 1.106873,-0.65735 1.644401,-1.011683 0.453371,-0.299168 0.86569,-0.377937 1.386798,-0.4857 0.04028,0.504687 0.159334,0.972683 0.343043,1.443758 0.247597,0.635541 0.441825,1.374995 0.78102,1.958964 0.878262,1.512521 2.054411,3.153586 3.601826,4.043138 l -0.05799,0.12367 -0.123157,0.261709 h 7.7e-4 c -0.192689,0.278642 -1.232595,0.990643 -1.466593,1.394751 2.039016,1.595652 4.602475,2.548835 7.382485,2.548835 5.66163,0 10.42985,-3.952823 11.68631,-9.239846 l 0.50956,0.190894 z" />
    <path
       id="path1632"
       d="m 5.209526,28.916267 a 0.02411822,0.02411822 0 0 0 -0.0059,0.0026 c 0.0021,-10e-4 0.0038,-0.0021 0.0059,-0.0026 z"
       style="stroke-width:0.256577" />
    <path
       id="path1630"
       d="m 12.754168,29.258541 c 0.165749,-0.04413 -0.0085,0.556772 0.01591,0.668896 0.441056,-0.109815 1.093531,-0.25709 1.436061,-0.599364 1.050682,-0.779737 2.101107,-1.25543 3.15179,-1.620539 0.237846,-0.04464 1.418869,-0.220656 1.323166,0.01899 -0.139064,0.149841 -0.495706,0.28403 -0.834388,0.349714 -0.0067,0.756645 0.233485,1.633111 0.63785,2.339724 0.717646,1.796551 2.187831,3.557438 3.837877,4.597857 0.889552,0.560877 3.089182,1.450686 5.070472,1.90534 1.77397,0.406417 2.69251,0.332267 3.17257,0.497502 0.10366,0.334833 -1.05299,0.197821 -1.79091,0.145736 -2.1283,-0.150867 -5.41018,-1.327016 -6.299726,-1.796551 -0.298142,0.707639 -1.220022,1.286476 -1.774998,1.79065 -0.139321,0.126749 -0.278643,0.253497 -0.369984,0.105709 -0.185762,-0.300195 1.266207,-1.259279 1.497639,-1.594112 h -7.7e-4 l 0.1814,-0.385378 c -1.547415,-0.889552 -2.723563,-2.530617 -3.601825,-4.043138 -0.339195,-0.583712 -0.533424,-1.323423 -0.78102,-1.958964 -0.183709,-0.471075 -0.302761,-0.939071 -0.343044,-1.443758 -0.521107,0.107762 -0.933683,0.186531 -1.386797,0.4857 -0.537529,0.354333 -1.122268,0.634514 -1.644401,1.011682 v -5.13e-4 c -0.355103,0.256577 -1.016301,0.426431 -1.442989,0.556259 0.288649,0.716619 0.360234,1.317522 -0.15138,1.666723 -0.184222,0.138295 -0.362543,0.05311 -0.561133,0.01463 -0.984486,-0.19038 -1.363706,-1.261332 -2.27635,-1.664671 -0.171137,-0.03797 -0.359721,0.04465 -0.530858,0.0069 C 8.807249,30.389255 7.676515,29.546913 7.210571,29.327797 6.790042,29.455572 5.170016,30.052883 4.810038,29.548196 4.607086,29.278021 4.6525,29.049667 4.806238,28.834656 5.120288,28.394114 5.915676,27.96717 5.929274,27.396543 5.680651,27.312133 5.13363,27.341893 4.487826,27.361643 3.958764,27.378063 3.495386,27.121231 3.468189,26.866707 3.385829,26.100568 4.910151,25.720321 5.59906,25.156109 5.211116,24.61114 4.178394,24.207031 3.723996,23.619214 3.415848,23.22075 3.791986,22.815102 4.284873,22.784056 c 1.063255,-0.06722 2.952687,0.833618 3.327032,1.004755 1.28545,0.587561 2.501624,1.303154 3.751154,1.937155 0.281208,-0.201669 0.614501,-0.454911 0.895709,-0.65658 0.782303,-0.772296 1.89636,-1.220023 2.444665,-2.224778 0.478772,-0.876723 1.642605,-1.738565 2.465703,-2.310987 -0.165749,-0.577298 -0.245801,-0.982946 -0.562673,-1.428877 -0.413602,-0.966781 -0.531114,-1.620796 0.01796,-2.654287 0.384866,-0.725343 0.626048,-1.379101 1.291865,-1.926892 0.542147,-0.446187 0.980893,-1.103794 1.342153,-1.701618 0.697633,-1.154339 0.929578,-2.803359 2.084944,-3.6120889 a 1.4740339,1.4740339 0 0 0 0.302247,-0.279412 c 0.37101,-0.451832 0.778454,-0.684034 1.239014,-0.792822 0.31507,-0.07441 0.64606,-0.03207 1.01347,-0.03233 0.13881,0 0.35074,0.05747 0.59141,-0.248366 0.76973,-0.785639 2.08854,-1.465054 3.26571,-1.425028 1.27981,0.04336 0.94061,1.209503 1.62773,1.896872 a 0.58422546,0.58422546 0 0 0 0.43438,0.22938 c 0.48904,0.03669 1.10687,-0.29532 1.4122,-0.168571 0.0931,0.03874 0.14086,0.14317 0.12367,0.34407 -0.0652,0.176011 -0.1424,0.267353 -0.20757,0.443108 l 5.1e-4,5.13e-4 c -0.44259,0.738685 -1.15203,0.8923739 -2.46647,1.1928259 -0.12136,0.05619 0.11315,0.373832 0.1052,0.587048 -0.004,0.111867 -0.23708,0.194998 -0.35972,0.197564 0.32482,1.060688 -0.10417,2.13164 0.24349,3.16 0.26555,0.784612 0.73406,1.453764 0.96909,2.248126 0.14573,0.491858 0.38999,0.99244 0.39025,1.505593 0.42387,0.02232 0.85953,0.112381 1.28391,0.158052 1.15203,0.124183 2.13626,0.230406 3.36013,0.894426 1.58462,0.859789 3.16873,2.601946 3.45532,4.455201 0.0626,0.404878 0.23092,1.293917 0.59423,1.518165 0.18602,0.09622 0.5578,0.136499 0.93215,0.132907 0.35177,-0.0033 0.70558,-0.04593 0.91059,-0.117513 0.78718,-0.296859 1.50431,-0.764342 2.24351,-1.143306 0.77383,-0.396924 1.45274,-0.673001 2.3564,-0.61758 0.42951,0.02617 0.83593,0.103144 0.82284,0.631692 -0.018,0.763572 -1.37807,1.378331 -1.8648,1.797321 -0.50315,0.474154 -1.06736,0.986024 -1.2775,1.497639 0.52214,0.124183 1.83709,0.287366 2.93755,0.642981 0.94061,0.303787 1.72933,0.712001 1.68289,1.505336 -0.0311,0.53368 -0.44311,0.62143 -0.94908,0.639903 -0.89648,0.0331 -2.16345,-0.38076 -2.53729,-0.337655 -0.15728,-0.0046 -0.53829,0.09211 -0.65144,0.165492 0.28069,0.707126 1.73651,1.275957 1.73599,2.089305 0,0.423865 -0.42848,0.490575 -0.83079,0.504174 -1.11714,0.03849 -2.10367,-0.895967 -2.84595,-1.461205 -0.62682,-0.47749 -1.22464,-0.173446 -1.89636,-0.02207 -0.47595,0.193459 -2.27455,0.222452 -2.83235,0.07569 -1.07942,0.39949 -1.80964,0.41899 -2.96654,0.349201 -0.36126,-0.151893 -0.56088,-0.427457 -0.55524,-0.730217 0.0131,-0.716106 0.87057,-1.659283 1.25133,-2.01849 -0.51777,-0.437977 -0.91547,-0.585252 -1.10046,-1.29674 -0.10083,-0.389997 0.0721,-0.767165 0.25196,-0.442595 0.0257,0.04644 0.1814,0.0585 0.20039,0.137782 v -2.57e-4 c 0.18781,0.71508 0.54368,0.874414 0.99474,1.346002 0.22913,-0.08929 0.17653,-0.340734 0.60629,-0.457989 0.13342,-0.02001 0.1442,0.125722 0.0677,0.266583 -0.0988,0.1814 -0.32123,0.376912 -0.38692,0.42951 -0.26812,0.214498 -0.57473,0.368957 -0.81591,0.6671 -0.15985,0.19782 -0.6204,0.853887 -0.59423,1.092504 0.038,0.344326 0.22989,0.462095 0.46491,0.52162 1.13895,0.290189 2.66199,-0.225017 3.88971,-0.693527 0.22758,-0.08724 0.46107,-0.271715 0.64734,-0.250162 0.18448,0.19936 -0.56678,0.575245 -1.05325,0.75177 0.37692,0.104683 0.75024,0.146249 1.0979,0.07107 0.71148,-0.154459 1.36447,-0.550358 2.09572,-0.500582 1.10456,0.07518 1.95947,1.744466 3.28931,1.850176 0.0164,10e-4 0.0326,0.0021 0.0485,0.0026 0.24016,0.0069 0.4349,-0.08005 0.38898,-0.328675 -0.15729,-0.849013 -1.63671,-1.674677 -1.87019,-2.008484 -0.12983,-0.185505 1.13201,-0.442082 1.31341,-0.446957 0.77487,-0.02155 1.63414,0.377938 2.34819,0.288649 1.21515,-0.152406 0.14394,-1.217713 -0.43746,-1.374995 -0.91213,-0.247083 -2.02413,-0.564212 -2.96859,-0.718415 -0.0251,0.23836 0.0331,0.559594 -0.10777,0.632205 -0.21937,0.0031 -0.27351,-0.388457 -0.2907,-0.78025 -0.0126,-0.285057 0.624,-1.078649 0.8113,-1.292377 a 5.9274382,5.9274382 0 0 1 1.31342,-1.123807 c 0,-0.171393 1.40219,-0.729705 0.68993,-1.125603 -0.87056,-0.460042 -1.99386,0.233742 -2.76359,0.63939 l -2.41952,1.140227 c -0.37434,0.112638 -0.51572,0.173703 -0.8816,0.309175 -0.33072,0.112381 -0.021,-0.310971 -0.002,-0.433101 -0.35125,0.0097 -0.80385,0.05593 -1.20026,0.09904 -0.58936,-0.255294 -0.37948,-1.67442 -0.61938,-2.309191 -0.60347,-1.579487 -1.73497,-3.109198 -3.22517,-3.885343 -0.59244,-0.308149 -1.1877,-0.583199 -1.83453,-0.708152 -0.78076,-0.150354 -1.61874,-0.124697 -2.39335,-0.22861 -0.21449,1.317778 -0.67864,2.038759 -1.54254,3.052751 -0.1252,0.147275 -0.13085,0.128802 -0.16343,0.09929 -0.019,-0.01745 -0.15626,0.06286 -0.0395,-0.117512 0.66094,-1.01861 1.45787,-2.205021 1.38757,-3.244414 -0.0631,-0.929835 -0.30507,-1.616947 -0.77435,-2.441842 -0.24606,-0.432845 -0.40385,-0.825664 -0.51213,-1.239266 -0.29557,-1.130478 0.15138,-2.218363 -0.29506,-3.385531 -0.0662,-0.512128 -0.48211,-0.983716 -0.58525,-1.2864769 -0.0457,-0.134189 0.0916,-0.215524 0.19782,-0.08647 0.20449,0.2481099 0.34587,0.5950019 0.55036,0.8431109 -0.008,-0.259912 0.0416,-0.539581 0.22707,-0.587304 0.15574,-0.04003 0.39179,-0.02976 0.57191,-0.116486 0.17883,0.04516 2.04363,-0.6314349 1.94485,-1.1553649 -0.0405,-0.215525 -0.79488,0.130084 -0.9673,0.152663 v 5.13e-4 a 1.1145698,1.1145698 0 0 1 -0.0831,0.0031 c -1.42631,-7.7e-4 -1.13509,-1.963326 -2.21554,-2.0462 -0.18832,-0.01437 -0.40641,-0.04182 -0.65452,0.03849 -1.44145,0.07107 -2.14011,1.613099 -3.34346,1.548185 -0.55215,-0.02976 -1.217454,0.07697 -1.601807,0.534449 -0.184735,0.219887 -0.422838,0.508022 -0.658119,0.672745 -0.481082,0.3363719 -0.756902,1.1982139 -1.059149,1.7693539 -0.415911,1.064537 -1.078393,2.136258 -1.836321,2.986554 -0.325339,0.364596 -0.853631,0.759981 -1.055557,1.204115 -0.351254,0.77281 -0.848756,1.389364 -0.681725,2.281481 0.107763,0.575502 0.588075,1.663132 0.842086,2.101365 0.09468,0.163696 0.341247,0.564469 0.573192,0.928808 0.205005,0.321234 0.441312,0.635028 0.233998,0.784099 -0.09339,0.06722 -0.543686,-0.695837 -1.002445,-1.000906 -0.574476,0.402825 -1.06659,0.839776 -1.60925,1.272621 -0.58987,0.470305 -0.840033,1.164089 -1.389877,1.69238 -0.411036,0.394103 -0.839263,0.754593 -1.31316,1.070439 -0.469536,0.312767 -0.874158,0.796415 -1.356009,1.08686 0.117769,0.04901 0.816428,0.193972 0.724573,0.380503 -0.115203,0.233998 -0.729961,0.06876 -1.051708,-0.03387 -0.510588,-0.162926 -1.03888,-0.418477 -1.30649,-0.61912 C 9.785951,25.491754 7.032881,23.972563 6.87406,23.895333 6.107152,23.522527 5.053648,23.174352 4.534849,23.159214 c -0.173189,-0.0054 -0.29455,0.0038 -0.339194,0.115203 a 0.19089317,0.19089317 0 0 0 -0.03438,0.213216 c 0.133164,0.320721 1.004242,0.744073 1.402449,1.078649 0.199874,0.168058 1.074544,0.861328 0.998341,1.329581 C 6.526915,26.111644 5.940892,25.59849 5.760262,25.387584 5.46212,25.566162 5.105991,25.801956 4.809645,25.983869 v -7.7e-4 c -0.100321,0.06184 -0.881598,0.534706 -0.813605,0.636054 -0.03207,0.701994 1.601809,0.374859 2.118555,0.470305 0.337142,0.06209 1.11457,0.67762 0.900071,0.851066 -0.0567,0.04054 -0.140604,-0.05157 -0.231945,-0.100835 -0.201156,-0.107762 -0.43772,-0.278642 -0.495706,-0.289675 -0.193459,0.38153 -0.563187,0.936249 -0.893658,1.201293 -0.01411,0.01155 -0.196794,0.154972 -0.189866,0.168314 l 0.0038,0.07774 c -0.05414,0.216551 0.03566,0.315589 0.197308,0.344839 0.355615,0.06414 1.162036,-0.174985 1.445041,-0.276077 -0.190637,-0.209366 -0.179091,-0.644008 0.0021,-0.553692 0.338168,0.168314 1.540744,1.110464 1.989754,1.386028 0.10263,-0.149841 0.09288,-0.326623 0.209366,-0.374859 0.349458,-0.144709 0.800007,0.316103 1.165116,0.477489 0.794875,0.351254 0.974222,0.925986 1.61669,1.416305 0.175499,0.133676 0.44978,0.113663 0.658633,0.160873 0.336372,-0.464147 7.7e-4,-0.837467 -0.0916,-1.298535 -0.09083,-0.35305 0.226044,-0.986538 0.354589,-1.021176 z"
       style="stroke-width:0.256577;fill:#ff0000" />
    <path
       style="stroke-width:0.256577;fill:#ff0000"
       id="path1568"
       d="m 40.030596,24.450291 -2.31432,-4.653534 -23.825729,12.258215 2.23812,4.73102 z"
       fill="#cc2229" />
  </g>
</svg>
